<?xml version="1.0" standalone="no"?>
<!DOCTYPE svg PUBLIC "-//W3C//DTD SVG 20010904//EN"
 "http://www.w3.org/TR/2001/REC-SVG-20010904/DTD/svg10.dtd">
<svg version="1.0" xmlns="http://www.w3.org/2000/svg"
 width="97.000000pt" height="95.000000pt" viewBox="0 0 97.000000 95.000000"
 preserveAspectRatio="xMidYMid meet">
<metadata>
Created by potrace 1.15, written by Peter Selinger 2001-2017
</metadata>
<g transform="translate(0.000000,95.000000) scale(0.100000,-0.100000)"
fill="#000000" stroke="none">
<path d="M460 930 c-42 -3 -56 -7 -40 -11 30 -6 142 4 120 11 -8 3 -44 3 -80
0z"/>
<path d="M470 880 l-75 -6 78 -2 c46 -1 77 2 77 8 0 6 -1 9 -2 8 -2 -1 -37 -4
-78 -8z"/>
<path d="M798 833 c32 -44 82 -89 82 -73 0 15 -79 100 -93 100 -4 0 1 -12 11
-27z"/>
<path d="M180 821 c-16 -30 -12 -36 10 -16 21 19 26 35 10 35 -5 0 -14 -9 -20
-19z"/>
<path d="M408 829 c-14 -4 5 -8 50 -10 39 -1 77 -2 82 -3 6 -1 9 4 8 9 -3 11
-103 14 -140 4z"/>
<path d="M740 815 c0 -9 94 -95 105 -95 5 0 -13 23 -40 50 -45 45 -65 59 -65
45z"/>
<path d="M177 755 c-30 -30 -52 -57 -48 -59 4 -3 34 22 66 54 33 33 55 60 49
60 -6 0 -36 -25 -67 -55z"/>
<path d="M710 782 c0 -13 23 -32 39 -32 11 0 10 4 -4 20 -19 21 -35 26 -35 12z"/>
<path d="M120 760 c-22 -19 -23 -39 -1 -25 11 6 35 45 28 45 -2 0 -14 -9 -27
-20z"/>
<path d="M215 720 c-27 -27 -46 -52 -43 -55 4 -5 108 92 108 101 0 13 -22 -3
-65 -46z"/>
<path d="M423 716 c-98 -31 -163 -99 -184 -194 -30 -131 42 -257 170 -300 179
-62 362 123 307 310 -24 83 -64 131 -139 167 -71 34 -91 36 -154 17z m119 -31
c99 -67 56 -202 -71 -219 -71 -9 -111 -50 -111 -114 0 -29 8 -59 20 -79 23
-39 21 -40 -23 -12 -140 92 -144 309 -7 404 72 50 138 57 192 20z m-36 -330
c7 -18 -13 -45 -33 -45 -17 0 -27 24 -19 45 7 20 45 19 52 0z"/>
<path d="M450 615 c-15 -18 -10 -45 13 -59 34 -22 73 27 47 59 -16 19 -44 19
-60 0z"/>
<path d="M775 718 c16 -28 38 -47 47 -42 11 7 -8 31 -35 46 -15 8 -18 7 -12
-4z"/>
<path d="M40 470 c0 -46 3 -80 7 -76 8 7 5 147 -2 155 -3 2 -5 -33 -5 -79z"/>
<path d="M83 520 c0 -16 5 -30 11 -30 14 0 13 53 -1 57 -5 2 -10 -10 -10 -27z"/>
<path d="M128 474 c-2 -42 0 -78 5 -81 4 -2 7 32 7 76 0 45 -2 81 -4 81 -3 0
-6 -34 -8 -76z"/>
<path d="M830 510 c0 -16 5 -30 10 -30 6 0 10 14 10 30 0 17 -4 30 -10 30 -5
0 -10 -13 -10 -30z"/>
<path d="M880 455 c0 -50 4 -85 10 -85 6 0 10 35 10 85 0 50 -4 85 -10 85 -6
0 -10 -35 -10 -85z"/>
<path d="M920 510 c0 -16 5 -30 10 -30 6 0 10 14 10 30 0 17 -4 30 -10 30 -5
0 -10 -13 -10 -30z"/>
<path d="M82 425 c1 -19 7 -35 13 -35 7 0 9 14 7 35 -5 46 -23 46 -20 0z"/>
<path d="M838 438 c-2 -7 -1 -26 3 -43 6 -28 7 -26 8 13 1 42 -3 53 -11 30z"/>
<path d="M920 410 c0 -22 5 -40 10 -40 6 0 10 18 10 40 0 22 -4 40 -10 40 -5
0 -10 -18 -10 -40z"/>
<path d="M170 275 c0 -13 101 -106 112 -103 6 2 -13 27 -43 56 -49 47 -69 61
-69 47z"/>
<path d="M750 249 c-7 -11 -9 -24 -5 -27 7 -7 35 25 35 40 0 16 -19 8 -30 -13z"/>
<path d="M136 242 c-3 -5 6 -20 19 -32 14 -13 25 -18 25 -11 0 17 -37 54 -44
43z"/>
<path d="M786 215 c-11 -8 -16 -18 -12 -22 3 -4 16 3 29 15 24 25 12 29 -17 7z"/>
<path d="M100 202 c0 -14 39 -46 47 -39 3 4 -2 16 -12 27 -19 21 -35 26 -35
12z"/>
<path d="M687 182 c-27 -30 -20 -47 8 -21 13 13 25 27 25 32 0 13 -16 7 -33
-11z"/>
<path d="M782 133 c-29 -31 -50 -59 -47 -62 6 -6 92 76 106 102 19 34 -8 16
-59 -40z"/>
<path d="M216 148 c10 -13 20 -25 21 -27 1 -1 7 0 13 4 8 5 5 13 -9 26 -29 27
-48 24 -25 -3z"/>
<path d="M712 140 c-25 -24 -27 -30 -9 -30 13 1 53 50 39 50 -4 0 -18 -9 -30
-20z"/>
<path d="M390 130 c0 -5 16 -10 36 -10 21 0 33 4 29 10 -3 6 -19 10 -36 10
-16 0 -29 -4 -29 -10z"/>
<path d="M495 130 c-4 -6 10 -10 35 -10 25 0 39 4 35 10 -3 6 -19 10 -35 10
-16 0 -32 -4 -35 -10z"/>
<path d="M180 122 c0 -15 38 -44 43 -34 4 4 -3 16 -14 25 -21 19 -29 21 -29 9z"/>
<path d="M390 75 c0 -11 10 -15 35 -15 22 0 35 5 35 13 0 8 -14 14 -35 15 -26
2 -35 -1 -35 -13z"/>
<path d="M490 72 c0 -17 72 -12 78 6 3 9 -7 12 -37 10 -26 -2 -41 -8 -41 -16z"/>
<path d="M494 28 c-3 -4 14 -8 37 -8 23 0 39 3 35 8 -10 10 -66 10 -72 0z"/>
<path d="M390 23 c0 -5 16 -8 35 -8 19 0 35 3 35 8 0 4 -16 7 -35 7 -19 0 -35
-3 -35 -7z"/>
</g>
</svg>
