<?xml version="1.0" standalone="no"?>
<!DOCTYPE svg PUBLIC "-//W3C//DTD SVG 20010904//EN"
 "http://www.w3.org/TR/2001/REC-SVG-20010904/DTD/svg10.dtd">
<svg version="1.0" xmlns="http://www.w3.org/2000/svg"
 width="154.000000pt" height="147.000000pt" viewBox="0 0 154.000000 147.000000"
 preserveAspectRatio="xMidYMid meet">
<metadata>
Created by potrace 1.15, written by Peter Selinger 2001-2017
</metadata>
<g transform="translate(0.000000,147.000000) scale(0.100000,-0.100000)"
fill="#000000" stroke="none">
<path d="M707 1416 c11 -67 -4 -104 -53 -136 -25 -15 -41 -31 -35 -34 24 -15
111 44 112 77 0 21 1 21 12 -3 6 -14 17 -31 24 -38 7 -7 13 -18 13 -23 0 -13
87 -11 95 2 10 15 1 21 -37 25 -18 2 -40 6 -48 9 -23 7 -50 58 -50 93 0 40 -9
62 -25 62 -10 0 -12 -10 -8 -34z"/>
<path d="M750 1385 c0 -8 2 -15 4 -15 2 0 11 -3 20 -6 12 -4 16 0 16 15 0 14
-6 21 -20 21 -11 0 -20 -7 -20 -15z"/>
<path d="M540 1318 c-83 -29 -136 -56 -188 -95 -61 -46 -122 -104 -122 -117 0
-6 24 13 53 41 28 28 77 67 108 86 63 40 177 89 190 82 8 -5 24 13 18 20 -2 1
-29 -6 -59 -17z"/>
<path d="M900 1322 c0 -4 9 -8 20 -9 10 -1 59 -21 107 -45 90 -44 214 -148
251 -210 9 -15 20 -28 25 -28 12 0 -28 57 -77 109 -76 80 -160 135 -265 172
-62 22 -61 22 -61 11z"/>
<path d="M145 1053 c5 -21 1 -31 -17 -45 -14 -10 -17 -18 -9 -18 14 0 -27 -63
-57 -87 -12 -10 -13 -13 -2 -13 7 0 30 18 52 40 36 39 38 40 38 16 0 -14 -5
-28 -11 -31 -7 -5 -4 -13 7 -26 23 -26 33 -16 31 31 l-3 39 33 -25 c35 -27 54
-29 98 -10 l30 13 -46 6 c-76 10 -157 57 -99 57 11 0 20 7 20 15 0 8 -9 15
-20 15 -17 0 -19 5 -14 25 5 21 3 25 -16 25 -19 0 -21 -4 -15 -27z"/>
<path d="M659 1007 c-103 -29 -181 -96 -228 -197 -37 -80 -36 -191 4 -274 34
-71 87 -126 157 -163 47 -24 64 -27 148 -27 83 0 101 3 146 26 70 37 122 92
158 168 80 169 3 369 -171 446 -67 30 -153 38 -214 21z m151 -19 c61 -31 90
-77 90 -143 0 -85 -58 -152 -141 -161 -24 -3 -54 -7 -66 -10 -29 -6 -90 -59
-109 -95 -31 -60 -11 -148 45 -196 34 -29 22 -29 -37 1 -188 95 -236 349 -98
514 50 58 160 110 241 111 17 1 51 -9 75 -21z m-42 -444 c12 -8 22 -22 22 -31
0 -21 -29 -53 -47 -53 -15 0 -53 35 -53 50 0 12 37 50 48 50 4 0 18 -7 30 -16z"/>
<path d="M712 884 c-28 -20 -30 -69 -3 -84 31 -16 59 -12 75 12 21 30 20 44
-4 68 -24 24 -38 25 -68 4z"/>
<path d="M1337 956 c5 -32 4 -34 -16 -29 -27 7 -29 -23 -2 -32 13 -4 17 -12
14 -25 -4 -16 -14 -20 -44 -20 -39 0 -45 -5 -31 -26 5 -8 25 -9 62 -3 30 4 79
8 108 8 73 1 65 19 -10 23 l-63 3 28 27 c16 15 26 32 22 38 -3 6 -9 8 -13 6
-4 -2 -7 10 -7 27 0 27 -4 32 -27 35 -26 3 -27 1 -21 -32z"/>
<path d="M80 685 c0 -69 3 -125 8 -125 4 0 7 56 7 125 0 69 -3 125 -7 125 -5
0 -8 -56 -8 -125z"/>
<path d="M1392 633 c-3 -46 -22 -133 -38 -170 -8 -17 -14 -33 -14 -36 0 -3
-16 -33 -34 -66 -19 -34 -32 -61 -28 -61 14 0 79 125 101 196 15 46 21 87 18
120 -2 29 -4 36 -5 17z"/>
<path d="M90 540 c0 -6 7 -27 16 -48 8 -20 14 -37 12 -38 -2 0 8 -24 21 -52
13 -28 28 -49 33 -46 5 3 2 16 -6 29 -24 36 -63 139 -58 153 2 6 -1 12 -7 12
-6 0 -11 -5 -11 -10z"/>
<path d="M239 344 c-1 -5 -2 -20 -2 -34 -2 -17 -9 -26 -23 -28 -27 -4 -58 -37
-49 -52 5 -8 13 -6 28 7 22 20 18 9 -16 -40 -14 -20 -15 -28 -6 -26 8 2 29 -5
47 -14 44 -24 55 -14 48 42 l-7 46 20 -23 c11 -12 21 -27 23 -34 3 -7 17 -9
41 -4 41 8 51 26 14 26 -13 0 -38 11 -55 24 -30 21 -31 24 -12 29 11 3 20 12
20 21 0 19 -11 21 -28 4 -9 -9 -12 -6 -12 14 0 23 -29 62 -31 42z m1 -134 c0
-23 -4 -30 -20 -30 -20 0 -20 1 -5 30 9 17 18 30 20 30 3 0 5 -13 5 -30z"/>
<path d="M1102 231 c-17 -26 -50 -60 -73 -75 -22 -15 -39 -30 -36 -32 6 -7
103 42 112 56 8 13 35 13 35 1 0 -5 -8 -12 -17 -14 -17 -4 -17 -5 0 -6 19 -1
22 -14 7 -42 -8 -13 -21 -19 -45 -19 -19 0 -35 -5 -35 -11 0 -8 16 -8 53 -2
28 4 75 7 102 6 46 -2 49 -1 30 13 -13 10 -31 13 -52 9 -38 -7 -43 7 -17 43
12 17 12 22 2 22 -10 0 -9 3 1 9 9 6 22 6 32 0 10 -5 35 -9 56 -8 l38 0 -49
20 c-49 20 -98 49 -82 49 5 0 3 7 -4 15 -19 22 -24 19 -58 -34z"/>
<path d="M1167 140 c-6 -23 3 -26 21 -8 16 16 15 28 -2 28 -7 0 -16 -9 -19
-20z"/>
<path d="M390 126 c0 -7 107 -56 167 -76 112 -36 392 -22 419 22 4 6 2 8 -3 5
-21 -13 -169 -37 -230 -37 -89 0 -200 24 -275 59 -63 30 -78 35 -78 27z"/>
</g>
</svg>
