<?xml version="1.0" standalone="no"?>
<!DOCTYPE svg PUBLIC "-//W3C//DTD SVG 20010904//EN"
 "http://www.w3.org/TR/2001/REC-SVG-20010904/DTD/svg10.dtd">
<svg version="1.0" xmlns="http://www.w3.org/2000/svg"
 width="122.000000pt" height="67.000000pt" viewBox="0 0 122.000000 67.000000"
 preserveAspectRatio="xMidYMid meet">
<metadata>
Created by potrace 1.15, written by Peter Selinger 2001-2017
</metadata>
<g transform="translate(0.000000,67.000000) scale(0.100000,-0.100000)"
fill="#000000" stroke="none">
<path d="M488 494 c-13 -13 -22 -14 -58 -4 -23 6 -44 9 -47 6 -10 -10 8 -94
30 -137 20 -41 75 -89 101 -89 6 0 -2 8 -19 19 -63 39 -95 92 -95 157 0 38 8
41 50 19 34 -18 60 -62 60 -102 0 -15 7 -41 15 -57 8 -15 12 -32 9 -37 -3 -5
23 -9 58 -8 35 0 57 3 51 6 -10 3 -9 10 2 26 7 12 16 40 20 62 11 66 15 73 49
95 46 28 56 25 56 -15 0 -46 -23 -92 -63 -128 l-32 -29 33 22 c45 30 64 62 74
127 5 31 7 57 6 59 -2 1 -21 -1 -43 -6 -34 -8 -42 -7 -53 9 -13 18 -15 18 -42
3 -27 -16 -30 -16 -46 0 -16 16 -18 16 -30 0 -12 -16 -14 -16 -42 0 -26 15
-30 16 -44 2z m142 -54 c5 -10 10 -39 10 -64 0 -36 -6 -52 -28 -77 l-28 -31
-28 33 c-25 29 -28 39 -24 87 4 43 10 59 29 72 26 20 51 13 69 -20z"/>
<path d="M1015 481 c-11 -50 -80 -146 -137 -192 -29 -23 -82 -55 -116 -72
-110 -52 -258 -48 -382 11 -69 32 -169 132 -210 209 -27 52 -30 54 -24 23 17
-101 92 -213 183 -275 91 -61 160 -79 281 -73 87 4 105 9 173 42 123 61 211
171 238 296 6 28 9 54 6 56 -3 3 -8 -8 -12 -25z"/>
</g>
</svg>
